<svg xmlns="http://www.w3.org/2000/svg"><defs><font id="opensensemap" horiz-adv-x="1024"><font-face units-per-em="1024" ascent="960" descent="-64"/><glyph horiz-adv-x="512"/><glyph unicode="" glyph-name="radioactive" data-tags="radioactive" d="M512 529.354c44.932 0 81.354-36.426 81.354-81.354S556.928 366.646 512 366.646c-44.93 0-81.354 36.426-81.354 81.354s36.426 81.354 81.354 81.354zM1000.12 448H674.708c0 62.174-34.874 116.202-86.122 143.592L741.752 878.78c153.754-82.174 258.374-244.26 258.374-430.778zm-650.826 0H23.882c0 186.518 104.618 348.608 258.372 430.778L435.42 591.59c-51.25-27.394-86.122-81.42-86.122-143.592zM512-40.12c-83.062 0-161.28 20.746-229.748 57.342l153.166 287.186c22.822-12.198 48.896-19.11 76.582-19.11s53.76 6.914 76.582 19.112L741.748 17.222C673.278-19.372 595.062-40.12 512-40.12z"/><glyph unicode="" glyph-name="co2" data-tags="iconmonstr-weather-91" d="M597.333-64H426.666c0 56.277 2.645 135.339-40.875 194.432-67.797-18.261-142.677 4.309-188.032 57.216-27.691 32.341-42.539 72.491-43.136 115.541C63.146 337.578-.001 426.069-.001 526.165c0 101.675 65.109 191.488 158.848 224.725 15.488 119.211 115.371 209.109 235.819 209.109 74.581 0 144.384-35.669 188.885-93.952 27.947 15.36 59.392 23.509 91.947 23.509 88.491 0 161.877-56.917 182.357-136.704 97.877-30.763 166.144-121.728 166.144-226.688 0-115.712-82.944-212.437-192.512-233.771-2.048-34.005-14.592-67.029-36.608-94.848-35.157-44.331-91.605-70.827-156.715-66.816C596.009 76.67 597.332 4.564 597.332-64.002zM406.656 230.912c49.365-34.475 88.363-83.925 104.021-185.429 13.952 92.416 50.261 145.621 97.365 175.701 41.771-11.435 83.712-9.984 120.021 29.397 24.619 26.709 40.619 68.053 25.301 114.731 101.291 1.365 185.301 57.813 185.301 160.853 0 74.667-45.312 138.752-158.293 155.819 3.627 45.141-14.251 99.115-63.829 116.139-77.312 26.581-128.981-23.04-158.421-66.219-7.893 47.659-51.413 142.763-163.456 142.763-81.664 0-152.832-53.803-152.832-187.691-50.731-3.413-156.501-39.723-156.501-160.811 0-93.867 70.229-146.603 156.757-156.672-8.32-51.243-10.795-89.771 20.437-126.293 46.037-53.76 109.013-36.992 144.128-12.288zm15.189 220.459c-8.832-4.437-28.672-9.131-54.528-9.131C293.802 442.197 256 487.936 256 548.437c0 72.533 51.669 112.896 116.011 112.896 24.917 0 43.819-5.077 52.352-9.472l-9.771-38.144c-9.771 4.096-23.339 7.893-40.363 7.893-38.144 0-67.797-23.04-67.797-70.315 0-42.581 25.216-69.376 68.096-69.376 14.507 0 30.592 3.157 40.021 6.955l7.296-37.504zm216.662 102.442c0-69.675-42.24-111.915-104.363-111.915-63.061 0-99.925 47.616-99.925 108.117 0 63.701 40.661 111.317 103.424 111.317 65.237 0 100.864-48.896 100.864-107.52zm-153.515-2.816c0-41.6 19.541-70.955 51.712-70.955 32.469 0 51.072 30.891 51.072 72.192 0 38.144-18.304 70.912-51.413 70.912-32.469 0-51.371-30.891-51.371-72.149zm180.992-145.664v20.352c41.045 37.12 65.195 56.875 65.749 77.909 0 11.733-7.083 21.035-23.68 21.035-12.416 0-23.211-6.229-30.763-11.947l-9.557 24.107c10.837 8.192 27.648 14.848 47.147 14.848 32.555 0 50.432-19.029 50.432-45.141 0-35.797-51.541-73.472-51.541-73.472H768v-27.691H665.984z"/><glyph unicode="" glyph-name="check" data-tags="check" d="M954.857 627.428q0-22.857-16-38.857L447.428 97.142q-16-16-38.857-16t-38.857 16L85.143 381.713q-16 16-16 38.857t16 38.857l77.714 77.714q16 16 38.857 16t38.857-16l168-168.571 374.857 375.429q16 16 38.857 16t38.857-16l77.714-77.714q16-16 16-38.857z"/><glyph unicode="" glyph-name="close" data-tags="close, remove, times" horiz-adv-x="805" d="M741.714 195.428q0-22.857-16-38.857L648 78.857q-16-16-38.857-16t-38.857 16l-168 168-168-168q-16-16-38.857-16t-38.857 16l-77.714 77.714q-16 16-16 38.857t16 38.857l168 168-168 168q-16 16-16 38.857t16 38.857l77.714 77.714q16 16 38.857 16t38.857-16l168-168 168 168q16 16 38.857 16t38.857-16l77.714-77.714q16-16 16-38.857t-16-38.857l-168-168 168-168q16-16 16-38.857z"/><glyph unicode="" glyph-name="particulate-matter" data-tags="particulate-matter" horiz-adv-x="1214" d="M0 127.5q0 20 13.5 33.5 14 13 32 13h289q59 0 100.75-42.25T477 30.5q0-59.5-41.5-101.25t-101-41.75-101.5 42q-12.5 12.5-12.5 32t12.25 32.25T265 6.5q18.5 0 32.5-13 16-15.5 37-15.5T371-6.75t15.5 37.25q0 21-15.5 36.25T334.5 82h-289q-18.5 0-32 13.25T0 127.5zm0 162q0 19.5 13.5 33 14 13 32 13H608q21 0 36.5 15.5t15.5 37-15.5 36.75T608 440q-22 0-36.5-15-14.5-12-34-12t-31.75 12.25T493.5 457q0 20 12 32.5Q546 530 608 530q59.5 0 101.25-41.5T751 388t-41.75-100.75T608 245.5H45.5q-19 0-32.25 12.75T0 289.5zm114.5 126q0-6.5 8.5-6.5h77q6.5 0 11.5 8 18 43.5 56 72t85 32l28 4q10.5 0 10.5 9l4 27.5q8.5 86.5 73.25 145.25T621 765.5q88.5 0 153.5-58.25t74-145.75l4-31.5q0-9 9-9H948q72.5 0 124.25-51T1124 347.5 1072.25 225 948 174H579.5q-10 0-10-9V91q0-9 10-9H948q72.5 0 133.75 35.5t97 96.75 35.75 133.25q0 72.5-35.75 133.5t-97 96.5T948 613h-16.5q-25 106.5-111.75 174.5T621 855.5q-113 0-200-70.25T310.5 605.5q-68.5-16-121.5-65.75T115.5 422v-2q-1-2.5-1-4.5z"/><glyph unicode="" glyph-name="signal" data-tags="signal" d="M146.286 128V18.286q0-8-5.143-13.143T128 0H18.286q-8 0-13.143 5.143T0 18.286V128q0 8 5.143 13.143t13.143 5.143H128q8 0 13.143-5.143T146.286 128zm219.428 73.143V18.286q0-8-5.143-13.143T347.428 0H237.714q-8 0-13.143 5.143t-5.143 13.143v182.857q0 8 5.143 13.143t13.143 5.143h109.714q8 0 13.143-5.143t5.143-13.143zm219.429 146.285V18.285q0-8-5.143-13.143T566.857-.001H457.143q-8 0-13.143 5.143t-5.143 13.143v329.143q0 8 5.143 13.143t13.143 5.143h109.714q8 0 13.143-5.143t5.143-13.143zm219.428 219.429V18.286q0-8-5.143-13.143T786.285 0H676.571q-8 0-13.143 5.143t-5.143 13.143v548.571q0 8 5.143 13.143t13.143 5.143h109.714q8 0 13.143-5.143t5.143-13.143zM1024 859.428V18.285q0-8-5.143-13.143t-13.143-5.143H896q-8 0-13.143 5.143t-5.143 13.143v841.143q0 8 5.143 13.143T896 877.714h109.714q8 0 13.143-5.143t5.143-13.143z"/><glyph unicode="" glyph-name="cog" data-tags="cog, gear" horiz-adv-x="878" d="M585.143 438.857q0 60.571-42.857 103.429t-103.429 42.857-103.429-42.857-42.857-103.429 42.857-103.429 103.429-42.857 103.429 42.857 42.857 103.429zm292.571 62.286V374.286q0-6.857-4.571-13.143t-11.429-7.429l-105.714-16q-10.857-30.857-22.286-52 20-28.571 61.143-78.857 5.714-6.857 5.714-14.286t-5.143-13.143q-15.429-21.143-56.571-61.714t-53.714-40.571q-6.857 0-14.857 5.143L591.429 144q-25.143-13.143-52-21.714Q530.286 44.572 522.858 16q-4-16-20.571-16H375.43q-8 0-14 4.857t-6.571 12.286l-16 105.143q-28 9.143-51.429 21.143l-80.571-61.143q-5.714-5.143-14.286-5.143-8 0-14.286 6.286-72 65.143-94.286 96-4 5.714-4 13.143 0 6.857 4.571 13.143 8.571 12 29.143 38t30.857 40.286q-15.429 28.571-23.429 56.571L16.572 356.001q-7.429 1.143-12 7.143T.001 376.573V503.43q0 6.857 4.571 13.143t10.857 7.429l106.286 16q8 26.286 22.286 52.571-22.857 32.571-61.143 78.857-5.714 6.857-5.714 13.714 0 5.714 5.143 13.143 14.857 20.571 56.286 61.429t54 40.857q7.429 0 14.857-5.714l78.857-61.143q25.143 13.143 52 21.714 9.143 77.714 16.571 106.286 4 16 20.571 16h126.857q8 0 14-4.857t6.571-12.286l16-105.143q28-9.143 51.429-21.143l81.143 61.143q5.143 5.143 13.714 5.143 7.429 0 14.286-5.714 73.714-68 94.286-97.143 4-4.571 4-12.571 0-6.857-4.571-13.143-8.571-12-29.143-38t-30.857-40.286q14.857-28.571 23.429-56l104.571-16q7.429-1.143 12-7.143t4.571-13.429z"/><glyph unicode="" glyph-name="trash-o" data-tags="trash-o" horiz-adv-x="805" d="M292.571 530.286V201.143q0-8-5.143-13.143t-13.143-5.143h-36.571q-8 0-13.143 5.143t-5.143 13.143v329.143q0 8 5.143 13.143t13.143 5.143h36.571q8 0 13.143-5.143t5.143-13.143zm146.286 0V201.143q0-8-5.143-13.143t-13.143-5.143H384q-8 0-13.143 5.143t-5.143 13.143v329.143q0 8 5.143 13.143T384 548.572h36.571q8 0 13.143-5.143t5.143-13.143zm146.286 0V201.143q0-8-5.143-13.143t-13.143-5.143h-36.571q-8 0-13.143 5.143T512 201.143v329.143q0 8 5.143 13.143t13.143 5.143h36.571q8 0 13.143-5.143t5.143-13.143zm73.143-413.715v541.714h-512V116.571q0-12.571 4-23.143t8.286-15.429 6-4.857h475.429q1.714 0 6 4.857t8.286 15.429 4 23.143zm-384 614.857h256l-27.429 66.857q-4 5.143-9.714 6.286H312q-5.714-1.143-9.714-6.286zm530.285-18.285v-36.571q0-8-5.143-13.143t-13.143-5.143h-54.857V116.572q0-47.429-26.857-82T640 .001H164.571Q126.857.001 100 33.43t-26.857 80.857v544H18.286q-8 0-13.143 5.143T0 676.573v36.571q0 8 5.143 13.143t13.143 5.143h176.571l40 95.429q8.571 21.143 30.857 36t45.143 14.857h182.857q22.857 0 45.143-14.857t30.857-36l40-95.429h176.571q8 0 13.143-5.143t5.143-13.143z"/><glyph unicode="" glyph-name="download" data-tags="download" horiz-adv-x="951" d="M731.429 182.857q0 14.857-10.857 25.714t-25.714 10.857-25.714-10.857-10.857-25.714 10.857-25.714 25.714-10.857 25.714 10.857 10.857 25.714zm146.285 0q0 14.857-10.857 25.714t-25.714 10.857-25.714-10.857-10.857-25.714 10.857-25.714 25.714-10.857 25.714 10.857 10.857 25.714zm73.143 128V128q0-22.857-16-38.857t-38.857-16H54.857q-22.857 0-38.857 16T0 128v182.857q0 22.857 16 38.857t38.857 16h265.714L397.714 288q33.143-32 77.714-32t77.714 32l77.714 77.714h265.143q22.857 0 38.857-16t16-38.857zM765.143 636q9.714-23.429-8-40l-256-256q-10.286-10.857-25.714-10.857T449.715 340l-256 256q-17.714 16.571-8 40 9.714 22.286 33.714 22.286h146.286v256q0 14.857 10.857 25.714t25.714 10.857h146.286q14.857 0 25.714-10.857t10.857-25.714v-256h146.286q24 0 33.714-22.286z"/><glyph unicode="" glyph-name="moisture" data-tags="moisture" horiz-adv-x="1105" d="M0 346q0 92 57.5 163.75T203 602q24.5 109 112 178.75t200.5 69.75q110 0 196-68t112.5-175h16.5q71.5 0 132.5-34.75t96.5-95T1105 346q0-107-73.75-184T851 81.5q-10.5 0-10.5 9v71q0 9.5 10.5 9.5 68.5 3.5 116.5 54.5t48 120.5-52 120.75-123 51.25H755q-10 0-10 9l-3.5 31q-8.5 86-73.75 144.5T515.5 761Q428 761 363 702.75T289.5 558l-3-29q0-9.5-10.5-9.5l-28-1.5q-65.5-3-111.25-53.5T91 346q0-69.5 48-120.5T255.5 171q9 0 9-9.5v-71q0-9-9-9-107 5-181.25 81.5T0 346zm316-47q0 19.5 19.5 52.75T372 405.5q17 19 20.5 22.5l19-21.5q20.5-22 38.25-54.25T467.5 299q0-31.5-21.5-52.5t-53.5-21q-31.5 0-54 21.5T316 299zM475 86.5q0 22 12.75 51T519 192q14.5 20.5 35.5 44.75t32 34.75q5.5 5 13 12.5l13-12.5q30-26.5 68-78 19-26.5 31.5-55.5t12.5-51.5q0-51.5-36.25-87.75T599.5-37.5q-51.5 0-88 36t-36.5 88zm78.5 355q0 33.5 52 85.5l13-13.5q14-17 25.5-37.75t11.5-34.25q0-20.5-14.75-35.25T605.5 391.5q-21.5 0-36.75 14.75T553.5 441.5z"/><glyph unicode="" glyph-name="volume-up" data-tags="volume-up" horiz-adv-x="951" d="M438.857 749.714V128q0-14.857-10.857-25.714t-25.714-10.857-25.714 10.857L186.286 292.572H36.572q-14.857 0-25.714 10.857T.001 329.143v219.429q0 14.857 10.857 25.714t25.714 10.857h149.714l190.286 190.286q10.857 10.857 25.714 10.857T428 775.429t10.857-25.714zm219.429-310.857q0-43.429-24.286-80.857t-64.286-53.429q-5.714-2.857-14.286-2.857-14.857 0-25.714 10.571t-10.857 26q0 12 6.857 20.286t16.571 14.286T561.714 386t16.571 20.286 6.857 32.571-6.857 32.571-16.571 20.286-19.429 13.143-16.571 14.286-6.857 20.286q0 15.429 10.857 26T555.428 576q8.571 0 14.286-2.857 40-15.429 64.286-53.143t24.286-81.143zm146.285 0q0-87.429-48.571-161.429T627.429 169.714q-7.429-2.857-14.286-2.857-15.429 0-26.286 10.857T576 203.428q0 22.286 22.286 33.714 32 16.571 43.429 25.143 42.286 30.857 66 77.429t23.714 99.143T707.715 538t-66 77.429q-11.429 8.571-43.429 25.143Q576 652.001 576 674.286q0 14.857 10.857 25.714t25.714 10.857q7.429 0 14.857-2.857 80-33.714 128.571-107.714t48.571-161.429zm146.286 0q0-131.429-72.571-241.429t-193.143-162q-7.429-2.857-14.857-2.857-14.857 0-25.714 10.857t-10.857 25.714q0 20.571 22.286 33.714 4 2.286 12.857 6t12.857 6q26.286 14.286 46.857 29.143 70.286 52 109.714 129.714t39.429 165.143-39.429 165.143-109.714 129.714q-20.571 14.857-46.857 29.143-4 2.286-12.857 6t-12.857 6q-22.286 13.143-22.286 33.714 0 14.857 10.857 25.714t25.714 10.857q7.429 0 14.857-2.857 120.571-52 193.143-162t72.571-241.429z"/><glyph unicode="" glyph-name="barcode" data-tags="barcode" d="M36 73.143H0v804.571h36V73.143zm36 .571H53.714v804H72v-804zm53.714 0H108v804h17.714v-804zm89.715 0h-17.714v804h17.714v-804zm89.714 0h-35.429v804h35.429v-804zm72 0h-17.714v804h17.714v-804zm36 0h-17.714v804h17.714v-804zm36 0h-17.714v804h17.714v-804zm89.714 0h-36v804h36v-804zm89.714 0h-36v804h36v-804zm72 0h-36v804h36v-804zm72 0h-36v804h36v-804zm53.715 0h-36v804h36v-804zm108 0h-53.714v804h53.714v-804zm36 0H952v804h18.286v-804zm53.714-.571h-36v804.571h36V73.143z"/><glyph unicode="" glyph-name="temperature-celsius" data-tags="temperature-celsius" horiz-adv-x="560" d="M0 662.5q0 40 28.5 68.5T97 759.5q39.5 0 67.75-28.5T193 662.5 164.75 594 97 565.5q-40 0-68.5 28.5T0 662.5zm47 0q0-21 14.5-35.5 15-15 35.5-15t35.5 15 15 35.5-15 35.5T97 713q-21 0-35.5-14.75T47 662.5zm207.5-236q0-61.5 34-109.5 18-25 49.5-39.75t71.5-14.75q117 0 146.5 89 3 11.5-3.25 21.75T535 385.5q-11.5 3-21.5-3.5T501 364q0-.5-.75-2.75L499 357.5q-9-15-24-24-25-15-65.5-15-25 0-44.5 8.5-32 13.5-45.5 47.5-9 22-9 52v172q0 12 1.5 24 3 30.5 24 55.5 23.5 28 73.5 28 41.5 0 65.5-14.5 16-9.5 24-24 .5-1.5 1.25-4.25T501 660q3-11 12.5-16.25T535 641q11.5 2.5 17.75 12.25T556 674.5v.5l-4.5 12.5q-4 9-14.75 23T512.5 734q-16.5 12-43.75 20t-59.25 8q-40.5 0-71.75-14.25T289 709q-34.5-47.5-34.5-110.5v-172z"/><glyph unicode="" glyph-name="map-marker" data-tags="map-marker" horiz-adv-x="585" d="M438.857 585.143q0 60.571-42.857 103.429t-103.429 42.857-103.429-42.857-42.857-103.429 42.857-103.429 103.429-42.857T396 481.714t42.857 103.429zm146.286 0q0-62.286-18.857-102.286l-208-442.286q-9.143-18.857-27.143-29.714T292.572 0t-38.571 10.857-26.571 29.714L18.859 482.857Q.002 522.857.002 585.143.002 706.286 85.716 792t206.857 85.714T499.43 792t85.714-206.857z"/><glyph unicode="" glyph-name="temperature-fahrenheit" data-tags="temperature-fahrenheit" horiz-adv-x="569" d="M0 661q0 40 28.5 68.5T97 758q39.5 0 67.75-28.5T193 661t-28.25-68.75T97 563.5t-68.25 28.75T0 661zm47 0q0-21 14.5-35.5 15-15 35.5-15t35.5 15 15 35.5-15 35.25T97 711q-21 0-35.5-14.5T47 661zm235.5-367.5q0-11.5 8.25-19.75t19.75-8.25 19.75 8.25 8.25 19.75v202H491q11.5 0 19.75 8.5t8.25 20q0 12-8 20t-20 8H338.5v145.5h204q11.5 0 19 8t7.5 20-7.5 20-19 8H288q-5.5 0-5.5-6v-454z"/><glyph unicode="" glyph-name="drops" data-tags="drops" horiz-adv-x="426" d="M0 596q0 20.5 20.25 54T59 705.5q5 6 12.5 14.75T80 730l19.5-23q22-24.5 40.5-57t18.5-54q0-33-22.75-56.5T80 516t-56.5 23.5T0 596zm166.5-221.5q0 23 13 53.75t32 56.75q36.5 49 70 81.5 3.5 2.5 14 13l13.5-13q31-29.5 70.5-81Q400 458 412.75 428t12.75-53.5q0-55-37.5-92.25T295.5 245q-54 0-91.5 38t-37.5 91.5zm81 368q0 34.5 53.5 90.5l13.5-15q15-17.5 27-39.25t12-36.25q0-22-15.25-36.75T301 691q-23 0-38.25 14.75T247.5 742.5z"/><glyph unicode="" glyph-name="thermometer" data-tags="thermometer" horiz-adv-x="543" d="M0 205q0 68 31.5 126.75t88 98.25v529q0 64 44 108.5t108 44.5q64.5 0 108.75-44.5T424.5 959V430q56.5-39.5 87.5-98.25T543 205q0-74-36.25-136.5T408-30.25 271.5-66.5q-73.5 0-136 36.25t-99 98.75T0 205zm93.5 0q0-74.5 52.25-127.25T271.5 25q74.5 0 128.25 53.5T453.5 205q0 50-25.75 92.25T357.5 363l-15 7.5q-8 3.5-8 15.5v573q0 26-18 43t-45 17q-26 0-44.25-17T209 959V386q0-12-7.5-15.5L187 363q-44-23.5-68.75-65.5T93.5 205zm41.5 0q0-57 39-97t94-40 95.5 40.25T404 205q0 50.5-34.75 89T285 339.5V731q0 5-5.25 10.25T268 746.5q-7 0-11.25-4.5t-4.25-11V339.5q-49-7-83.25-45.5T135 205z"/><glyph unicode="" glyph-name="plus-circle" data-tags="plus-circle" horiz-adv-x="878" d="M694.857 402.286v73.143q0 14.857-10.857 25.714T658.286 512H512v146.286q0 14.857-10.857 25.714t-25.714 10.857h-73.143q-14.857 0-25.714-10.857t-10.857-25.714V512H219.429q-14.857 0-25.714-10.857t-10.857-25.714v-73.143q0-14.857 10.857-25.714t25.714-10.857h146.286V219.429q0-14.857 10.857-25.714t25.714-10.857h73.143q14.857 0 25.714 10.857T512 219.429v146.286h146.286q14.857 0 25.714 10.857t10.857 25.714zm182.857 36.571q0-119.429-58.857-220.286T659.143 58.857 438.857 0 218.571 58.857 58.857 218.571 0 438.857t58.857 220.286 159.714 159.714 220.286 58.857 220.286-58.857 159.714-159.714 58.857-220.286z"/><glyph unicode="" glyph-name="windspeed" data-tags="windspeed" horiz-adv-x="742" d="M0 441.5Q0 406 37 381q67.5-47.5 204-47.5 61.5 0 114 10.5 55.5 12 90.5 37.5t35 60q0 10.5-4 21 71 17.5 111.5 47.25T628.5 578q0 9.5-3 20.5 117 41.5 117 112 0 45-51 80-100 66.5-293 66.5-91 0-165-16-79.5-16-128.75-51T55.5 710.5Q55.5 684 72 662q-60.5-34.5-60.5-84 0-38.5 37.5-67.5-49-28.5-49-69zM20.5 288q0-37.5 46.25-58.75T183 208q71 0 117.5 21.25T347 288q0 14-9 23.5t-23 9.5q-11.5 0-20.5-8T283 293.5q-10-8-37.5-14.75T183 272q-56.5 0-91.5 16 8 8 8.75 20.5t-5.25 21q-8 11-20.75 13.5t-23.75-4.5q-30-20-30-50.5zM64 441.5q0 .5 6.5 6Q75 452 89.75 459t32.75 12l4 2q83-27.5 193.5-27.5 48.5 0 88 5.5l9-8q-4.5-8-21.5-17-20.5-11-63.5-19.5t-91-8.5-91.25 8.5T85.5 426q-17 7.5-21.5 15.5zM68 154q0-32.5 36.75-50T196 86.5q55.5 0 93 17.5t37.5 50q0 13-9.5 23t-22.5 10q-24 0-31.5-24.5-20-12.5-67-12.5-41 0-65.5 12.5Q123 187 99 187q-13 0-22-9.5T68 154zm7 424q0 4 5 9.5 12.5 15.5 48.5 30Q227 565 398.5 565q87.5 0 164.5 16v-3q0-7.5-9.5-15.5-21-18.5-78-35Q413.5 509 320 509q-94 0-156 18.5-59.5 16.5-79.5 35Q75 570 75 578zm44.5 132.5q0 9 12 20 23 21.5 91.5 41.5 73 21.5 175.5 21.5 103 0 177-21.5 69-20 91.5-41.5 11.5-11.5 11.5-20t-11.5-19q-22.5-21.5-91.5-42-74-21.5-177-21.5Q296 628 223 649.5q-69 20-91.5 42-12 10.5-12 19z"/><glyph unicode="" glyph-name="check-circle" data-tags="check-circle" horiz-adv-x="878" d="M733.714 531.428q0 16-10.286 26.286l-52 51.429Q660.571 620 645.714 620T620 609.143L386.857 376.572 257.714 505.715Q246.857 516.572 232 516.572t-25.714-10.857l-52-51.429Q144 444 144 428q0-15.429 10.286-25.714l206.857-206.857q10.857-10.857 25.714-10.857 15.429 0 26.286 10.857l310.286 310.286q10.286 10.286 10.286 25.714zm144-92.571q0-119.429-58.857-220.286T659.143 58.857 438.857 0 218.571 58.857 58.857 218.571 0 438.857t58.857 220.286 159.714 159.714 220.286 58.857 220.286-58.857 159.714-159.714 58.857-220.286z"/><glyph unicode="" glyph-name="info-circle" data-tags="info-circle" horiz-adv-x="878" d="M585.143 164.571V256q0 8-5.143 13.143t-13.143 5.143H512v292.571q0 8-5.143 13.143t-13.143 5.143H310.857q-8 0-13.143-5.143t-5.143-13.143v-91.429q0-8 5.143-13.143t13.143-5.143h54.857V274.285h-54.857q-8 0-13.143-5.143t-5.143-13.143V164.57q0-8 5.143-13.143t13.143-5.143h256q8 0 13.143 5.143t5.143 13.143zm-73.143 512V768q0 8-5.143 13.143t-13.143 5.143H384q-8 0-13.143-5.143T365.714 768v-91.429q0-8 5.143-13.143T384 658.285h109.714q8 0 13.143 5.143T512 676.571zm365.714-237.714q0-119.429-58.857-220.286T659.143 58.857 438.857 0 218.571 58.857 58.857 218.571 0 438.857t58.857 220.286 159.714 159.714 220.286 58.857 220.286-58.857 159.714-159.714 58.857-220.286z"/><glyph unicode="" glyph-name="sprinkles" data-tags="sprinkles" horiz-adv-x="1106" d="M0 344q0 92.5 56.75 164.25T203 602q25 109 112.25 179t200.25 70q110 0 196.25-68.25T824 607.5h17q71.5 0 132.5-35.25t96.5-96T1105.5 344q0-106-74-182.5t-180-80q-10.5 0-10.5 9v71q0 9.5 10.5 9.5 68 3.5 116.25 54.25T1016 344q0 71-51.5 122.5T841 518h-86q-9.5 0-9.5 9l-4 31q-9 86.5-74.25 145T515.5 761.5q-88 0-152.75-59T289.5 556l-3-26.5q0-10-10.5-10l-28-3.5q-66.5-5.5-111.75-55.25T91 344q0-68 48.25-118.75T255.5 171q9 0 9-9.5v-71q0-9-9-9-107 3.5-181.25 80T0 344zM293.5-66.5q0 18.5 13.5 32 13 12 30.5 12 18.5 0 31.25-12.5t12.75-31.5T368.75-98t-31.25-12.5T306.25-98 293.5-66.5zm46 193.5q0 18 12.75 31t31.25 13 31.25-13 12.75-31q0-19-12.75-32.25T383.5 81.5t-31.25 13.25T339.5 127zM441-171q0 18 13.5 32.5 13 13 30.5 13 19 0 32.5-13.5t13.5-32-13.5-31.25T485-215q-18 0-31 12.75T441-171zm46 195q0 19 13 33 13 13 31 13 18.5 0 32-13.5T576.5 24q0-18.5-13.25-31.75T531-21q-18 0-31 13.25T487 24zm22.5 193q0 18.5 13.5 32 14 13 30.5 13 19 0 32.5-13.25T599.5 217 586 185.75 553.5 173q-18 0-31 12.75t-13 31.25zM636-66.5q0 18 13 32 13 12 32 12T712.5-35 725-66.5 712.5-98 681-110.5t-32 12.75-13 31.25zM681.5 127q0 17.5 13.5 30.75T727 171t31.25-13T771 127q0-19-12.75-32.25T727 81.5q-19 0-32.25 13.5t-13.25 32z"/><glyph unicode="" glyph-name="brightness" data-tags="brightness" horiz-adv-x="1134" d="M0 468q0 19.5 13.5 33 14 13 32 13h109q18.5 0 30.75-13.5T197.5 468t-12.25-32.25-30.75-13.25h-109q-18.5 0-32 13.5T0 468zM152.5 98.5q0 18.5 12.5 32.5l78.5 76q12 12.5 31.5 12.5 19 0 31.75-12T319.5 177q0-19.5-13-34l-76-76Q198 41.5 165 67q-12.5 13.5-12.5 31.5zm0 738.5q0 18.5 12.5 32.5 15.5 13 34 13 17.5 0 31.5-13l76-78.5q13-12 13-31.5 0-19-12.75-31.75T275 715q-19.5 0-31.5 13L165 804q-12.5 13.5-12.5 33zm136-369q0 74.5 37.5 138.75T427.75 708.5 566.5 746q56 0 107.5-22.25t88.75-59.5T822 575.5 844 468q0-75-37.25-139T705.5 227.75t-139-37.25-139 37.25T326 329t-37.5 139zM521 53.5q0 19 13.25 32t32.25 13q19.5 0 32.5-13t13-32v-106q0-19.5-13.25-33T566.5-99t-32.25 13.5-13.25 33v106zm0 826.5v109q0 18.5 13.5 32t32 13.5 32-13.5 13.5-32V880q0-18.5-13.25-30.75T566.5 837t-32.25 12.25T521 880zm5.5-230.5Q596 641 643.25 588t47.25-124.5q0-66.5-41.75-117.25T543 281.5q16-2 23.5-2 78 0 133.25 55.25T755 468q0 77-55.25 131.5T566.5 654q-20.5 0-40-4.5zm289-472.5q0 18.5 12 30 12 12.5 30 12.5 19.5 0 32-12.5l78-76q13-14 13-32.5t-13-31.5q-32-25-64 0l-76 76q-12 13.5-12 34zm0 582.5q0 20 12 31.5l76 78.5q14 13 31.5 13 19 0 32.25-13.5t13.25-32q0-20-13-33l-78-76q-14.5-13-32-13-18 0-30 12.75t-12 31.75zM936 468q0 19 13 33 13 13 30.5 13h108q18.5 0 32.25-13.75T1133.5 468t-13.75-32-32.25-13.5h-108q-18.5 0-31 13.25T936 468z"/><glyph unicode="" glyph-name="barometer" data-tags="barometer" horiz-adv-x="781" d="M.5 544q0 79.5 31 152T115 820.5t124.75 83 151.25 31q79.5 0 151.75-31t124.5-83.25 83.25-124.5 31-151.75q0-129.5-76.75-231.25T507 173.5V-2H281v173.5q-123.5 36-202 139T.5 544zm86 0q0-124 90-213 89-89.5 214.5-89.5 82.5 0 152.75 40.5T655 392.25 696 544q0 61.5-24.25 117.75t-65.25 97-97.5 65T391 848t-117.75-24.25-97.25-65-65.25-97T86.5 544zm31-19v38.5H233V525H117.5zm58 188.5 28 27.5 81-81-27.5-28zm135-263q0 33.5 23.25 58T390.5 534L536 773.5l35-18.5-107.5-257.5q14-20 14-47 0-35-24.5-59.25T393.5 367q-34.5 0-58.75 24.25T310.5 450.5zm70 249V815h37V699.5h-37zm156.5-174V565h115.5v-39.5H537z"/><glyph unicode="" glyph-name="humidity" data-tags="humidity" horiz-adv-x="757" d="M-5 331q0 70.5 38.5 161.75t99 176.75q125 165 216.5 249l40 38.5q20-21 44-38.5 33-33.5 100.5-111.25T649 666q57-81 96.5-173.25T785 331q0-80-31-152.75T670.25 52.5 544-31.75 389-63q-80 0-152.75 30.25T110.5 49.75t-84.25 125.5T-5 331zm120.5 156.5q0-66.5 28-106t85-39.5q57.5 0 85.75 39.25T343 487.5q-.5 67-28.75 106.5t-85.75 39.5q-57 0-85-39.5t-28-106.5zm84 0q0 12 .25 18.5t1 17.5 2.5 17.25 4.75 13 8.25 9.75 12.25 3q11 0 17.5-6.5t9.25-20.5 3.25-24 .5-28-.5-27.75-3.25-23.75-9.25-20.5-17.5-6.5q-7 0-12.25 3t-8.25 9.75-4.75 13-2.5 17.25-1 17.25-.25 18.25zm31-413.5H301l266 573h-72zM460 233.5q1-67 29.25-106.5t85.25-39.5q57.5 0 85.25 39.25T688 233.5q-.5 67-28.25 106.25T574.5 379q-57 0-85.25-39.25T460 233.5zm84 0q0 18 .5 27.75t3.25 23.75 9.25 20.5 17.5 6.5q7.5 0 12.75-3t8.5-10 5.25-12.75 2.5-17.25l.75-17.25.25-18.25q0-13-.25-18.75l-.75-17.25-2.5-17.25-5.25-12.75-8.5-10-12.75-3q-11 0-17.5 6.5t-9.25 20.5-3.25 24-.5 28z"/><glyph unicode="" glyph-name="not-available" data-tags="not-available" horiz-adv-x="869" d="M.5 276H104v194h1l109.5-194h106v355H217V441.5h-1L112.5 631H.5V276zm348-8.5h76l139 372H488zm153 8.5H612l15.5 50.5h113l15-50.5H869L739.5 631h-107zm150 127 34 109h1.5l32-109h-67.5z"/><glyph unicode="" glyph-name="gauge" data-tags="gauge" horiz-adv-x="886" d="M-4 141q0 4 1 11v254q22-39.5 61.5-63.25t86-23.75q47 0 86.25 23.75T292 406q22-39.5 61.25-63.25T439.5 319q46.5 0 85.75 23.75T586.5 406q22.5-39.5 61.5-63.25T733.5 319t86 23.75T881 406V149.5q0-1.5.25-4.25t.25-4.25q0-1-.25-3.75T881 133q-2.5-18.5-16-32t-32-16q-1.5 0-4.25-.5t-4.25-.5q-1 0-3.75.5t-4.25.5H61q-1.5 0-4-.5t-4-.5-4.25.5T45 85q-18 2.5-31 15t-17 30q-1 7-1 11zm294 591.25q0 12.75 9 22.25L417 873l1.5 1q.5 0 .5.5.5 0 .5.5.5 0 .5.5h.5q.5 0 .5.5t.5 1h1l.5.5h.5l.5.5h.5l.5.5h.5q.5.5 1 .5h.5q0 .5 1 .5.5.5 1 .5l2 1h.5q.5 0 .5.5h3.5l.5.5h6.5q.5 0 1-.5h3q0-.5.5-.5h1q1-1 1.5-1l1-.5h1l.5-.5h.5l.5-.5q.5 0 .5-.5h1q.5 0 .5-.25t.5-.25q.5-.5 1-.5 0-1 .5-1l.5-.5h1l121-121q9.5-9.5 9.5-22.25t-9.5-21.75q-9-9.5-21.75-9.5T536 710.5l-65.5 65v-368q0-12.5-9-21.5t-22-9-22.25 9-9.25 21.5v368l-65-65q-9.5-9.5-22.25-9.5T299 710.5q-9 9-9 21.75z"/><glyph unicode="" glyph-name="twitter-square" data-tags="twitter-square" horiz-adv-x="878" d="M731.429 602.286q-32-14.286-69.143-19.429 38.857 22.857 53.143 66.857-37.143-21.714-76.571-29.143-34.857 37.714-87.429 37.714-49.714 0-84.857-35.143t-35.143-84.857q0-16.571 2.857-27.429-73.714 4-138.286 37.143T186.286 636.57q-16.571-28.571-16.571-60.571 0-65.143 52-100-26.857.571-57.143 14.857v-1.143q0-42.857 28.571-76.286t70.286-41.429q-16.571-4.571-29.143-4.571-7.429 0-22.286 2.286 12-36 42.571-59.429t69.429-24q-66.286-51.429-149.143-51.429-14.857 0-28.571 1.714 84.571-53.714 184-53.714 64 0 120 20.286t96 54.286 68.857 78.286T658 428.284t14 96.286q0 10.286-.571 15.429 36 25.714 60 62.286zm146.285 110.857V164.572q0-68-48.286-116.286T713.142 0H164.571q-68 0-116.286 48.286T-.001 164.572v548.571q0 68 48.286 116.286t116.286 48.286h548.571q68 0 116.286-48.286t48.286-116.286z"/><glyph unicode="" glyph-name="facebook-square" data-tags="facebook-square" horiz-adv-x="878" d="M713.143 877.714q68 0 116.286-48.286t48.286-116.286V164.571q0-68-48.286-116.286T713.143-.001H605.714v340h113.714l17.143 132.571H605.714v84.571q0 32 13.429 48t52.286 16l69.714.571v118.286q-36 5.143-101.714 5.143-77.714 0-124.286-45.714t-46.571-129.143V472.57H354.286V339.999h114.286v-340h-304q-68 0-116.286 48.286T0 164.571v548.571q0 68 48.286 116.286t116.286 48.286h548.571z"/><glyph unicode="" glyph-name="umbrella" data-tags="umbrella" horiz-adv-x="1108" d="M1.5 466.5q1 27 26.5 84.25T99 673.5q149 208.5 420.5 220V917q0 16.5 11.25 26.75T556.5 954q15 0 26.5-10.25T594.5 917v-23.5q78.5-3.5 146.5-24t118.25-53.25 86-67.5 64.25-75.25q33-47.5 56.5-101.25t32.5-85.75 9.5-32.5v-10q0-14-11.25-23.25t-26.25-9.25q-25 0-32 14-62.5 70-136 70-27.5-1.5-55-12.25t-44-22.25-31-23.25-15-12.25q-15-14-28.5-14-18 0-27.5 9.5-58 58-107 70.5v-404l-.25-9-.75-11-2-12.25-3.25-13.5-4.75-14-6.75-14.25-9-13.75L556.5-13.5q-40.5-47-116.5-47-81 0-121.5 47Q309-4 301.75 7t-11 21.75-6.5 20.5T281 68.5t-.75 15.75.25 12.5.5 6.75q0 14.5 12.5 25T323 136q14 0 23.5-12.25T356 94q-5-32.5 13.5-56Q386 14.5 440 14.5q41.5 0 60.5 19Q511 44 515.75 59T520 84l-.5 10v392.5q-58.5-14-103-61-3.5-6.5-12.5-12.25t-16-5.75q-14 0-32 18-64 71.5-136 70-32-.5-60-10.5t-42-20.25-29-24-17-15.25Q55.5 414 44.75 414T19 423q-13 8-15.75 17T1.5 466.5zm111.5 76Q167 571 215.5 571h4.5q92 0 168-71 30.5 26.5 74 47t94.5 24h4.5q92 0 168-71 30.5 26.5 74 47t94.5 24h5q45 0 93.5-23.5-35.5 68.5-47 88.5-143.5 187-396.5 187-126.5 0-226-48T164 636q-20-28-51-93.5z"/><glyph unicode="" glyph-name="clock" data-tags="clock" d="M0 466q0 104.5 51.75 193.25T192 799.5 384.5 851q78 0 149-30.5t122.5-82 82-122.75T768.5 466q0-78-30.5-149.25t-82-122.5-122.5-81.5-149-30.25q-78.5 0-149.75 30.5T112 195 30.25 317.25 0 466zm84.5 0q0-121.5 88.5-211 88.5-88.5 211.5-88.5 81 0 150 40.25T644 316t40.5 150T644 616.25t-109.5 109.5-150 40.25-150-40.25T125 616.25 84.5 466zm270.5 0v227.5q0 12 8.25 20.25T383.5 722t20.25-8.25T412 693.5v-210L534.5 412q10-6 13-17.25t-3-21.25q-8-14.5-24.5-14.5-8.5 0-14.5 4L375 439q-8.5 2.5-14.25 10T355 466z"/><glyph unicode="" glyph-name="github" data-tags="github" horiz-adv-x="878" d="M438.857 877.714q119.429 0 220.286-58.857t159.714-159.714 58.857-220.286q0-143.429-83.714-258T577.714 22.286q-15.429-2.857-22.857 4t-7.429 17.143q0 1.714.286 43.714T548 164q0 55.429-29.714 81.143 32.571 3.429 58.571 10.286t53.714 22.286 46.286 38 30.286 60 11.714 86q0 68-45.143 117.714 21.143 52-4.571 116.571-16 5.143-46.286-6.286t-52.571-25.143l-21.714-13.714q-53.143 14.857-109.714 14.857t-109.714-14.857q-9.143 6.286-24.286 15.429t-47.714 22T208.573 696q-25.714-64.571-4.571-116.571-45.143-49.714-45.143-117.714 0-48.571 11.714-85.714t30-60 46-38.286 53.714-22.286 58.571-10.286q-22.286-20.571-28-58.857-12-5.714-25.714-8.571t-32.571-2.857-37.429 12.286-31.714 35.714q-10.857 18.286-27.714 29.714t-28.286 13.714L136.001 268q-12 0-16.571-2.571t-2.857-6.571 5.143-8 7.429-6.857l4-2.857q12.571-5.714 24.857-21.714t18-29.143l5.714-13.143q7.429-21.714 25.143-35.143t38.286-17.143 39.714-4 31.714 2l13.143 2.286q0-21.714.286-50.571t.286-31.143q0-10.286-7.429-17.143t-22.857-4q-132.571 44-216.286 158.571t-83.714 258q0 119.429 58.857 220.286t159.714 159.714 220.286 58.857zM166.286 247.428q1.714 4-4 6.857-5.714 1.714-7.429-1.143-1.714-4 4-6.857 5.143-3.429 7.429 1.143zM184 228q4 2.857-1.143 9.143-5.714 5.143-9.143 1.714-4-2.857 1.143-9.143Q180.571 224 184 228zm17.143-25.714q5.143 4 0 10.857-4.571 7.429-9.714 3.429-5.143-2.857 0-10.286t9.714-4zm24-24q4.571 4.571-2.286 10.857Q216 196 211.428 190.857q-5.143-4.571 2.286-10.857 6.857-6.857 11.429-1.714zM257.714 164q1.714 6.286-7.429 9.143-8.571 2.286-10.857-4t7.429-8.571q8.571-3.429 10.857 3.429zm36-2.857q0 7.429-9.714 6.286-9.143 0-9.143-6.286 0-7.429 9.714-6.286 9.143 0 9.143 6.286zm33.143 5.714q-1.143 6.286-10.286 5.143-9.143-1.714-8-8.571t10.286-4.571 8 8z"/><glyph unicode="" glyph-name="globe" data-tags="globe" horiz-adv-x="878" d="M438.857 877.714q119.429 0 220.286-58.857t159.714-159.714 58.857-220.286-58.857-220.286T659.143 58.857 438.857 0 218.571 58.857 58.857 218.571 0 438.857t58.857 220.286 159.714 159.714 220.286 58.857zM595.429 580q-1.143-.571-5.429-5.429t-7.714-5.429q1.143 0 2.571 2.857t2.857 6.286 2 4q3.429 4 12.571 8.571 8 3.429 29.714 6.857 19.429 4.571 29.143-6.286-1.143 1.143 5.429 7.429t8.286 6.857q1.714 1.143 8.571 2.571t8.571 4.286l1.143 12.571q-6.857-.571-10 4t-3.714 12q0-1.143-3.429-4.571 0 4-2.571 4.571t-6.571-.571-5.143-.571q-5.714 1.714-8.571 4.286t-4.571 9.429-2.286 8.571q-1.143 2.857-5.429 6t-5.429 6q-.571 1.143-1.429 3.143t-1.714 3.714-2.286 3.143-3.143 1.429-4-2.857-4.286-5.714-2.571-2.857q-1.714 1.143-3.429.857t-2.571-.571-2.571-1.714-2.857-2q-1.714-1.143-4.857-1.714t-4.857-1.143q8.571 2.857-.571 6.286-5.714 2.286-9.143 1.714 5.143 2.286 4.286 6.857t-4.857 8h2.857q-.571 2.286-4.857 4.857t-10 4.857-7.429 3.429q-4.571 2.857-19.429 5.429t-18.857.286q-2.857-3.429-2.571-6t2.286-8 2-7.143q.571-3.429-3.143-7.429t-3.714-6.857q0-4 8-8.857t5.714-12.286q-1.714-4.571-9.143-9.143t-9.143-6.857q-2.857-4.571-.857-10.571t6-9.429q1.143-1.143.857-2.286t-2-2.571-3.143-2.286-3.714-2l-1.714-1.143q-6.286-2.857-11.714 3.429t-7.714 14.857q-4 14.286-9.143 17.143-13.143 4.571-16.571-.571-2.857 7.429-23.429 14.857-14.286 5.143-33.143 2.286 3.429.571 0 8.571-4 8.571-10.857 6.857 1.714 3.429 2.286 10t.571 7.714q1.714 7.429 6.857 13.143.571.571 4 4.857t5.429 7.714.286 3.429q20-2.286 28.571 6.286 2.857 2.857 6.571 9.714t6 9.714q5.143 3.429 8 3.143t8.286-3.143 8.286-2.857q8-.571 8.857 6.286t-4.286 11.429q6.857-.571 1.714 9.714-2.857 4-4.571 5.143-6.857 2.286-15.429-2.857-4.571-2.286 1.143-4.571-.571.571-5.429-6t-9.429-10-9.143 2.857q-.571.571-3.143 7.714t-5.429 7.714q-4.571 0-9.143-8.571 1.714 4.571-6.286 8.571t-13.714 4.571q10.857 6.857-4.571 15.429-4 2.286-11.714 2.857t-11.143-2.286q-2.857-4-3.143-6.571t2.857-4.571 6-3.143 6.571-2.286 4.857-1.714q8-5.714 4.571-8-1.143-.571-4.857-2t-6.571-2.571-3.429-2.286q-1.714-2.286 0-8t-1.143-8q-2.857 2.857-5.143 10t-4 9.429q4-5.143-14.286-3.429l-5.714.571q-2.286 0-9.143-1.143t-11.714-.571-7.714 4.571q-2.286 4.571 0 11.429.571 2.286 2.286 1.143-2.286 1.714-6.286 5.429t-5.714 4.857q-26.286-8.571-53.714-23.429 3.429-.571 6.857.571 2.857 1.143 7.429 3.714t5.714 3.143q19.429 8 24 4l2.857 2.857q8-9.143 11.429-14.286-4 2.286-17.143.571-11.429-3.429-12.571-6.857 4-6.857 2.857-10.286-2.286 1.714-6.571 5.714t-8.286 6.286T276 760q-9.143 0-12.571-.571Q180 713.715 129.143 632.572q4-4 6.857-4.571 2.286-.571 2.857-5.143t1.429-6.286 6.571 1.714q5.143-4.571 1.714-10.857.571.571 25.143-15.429 10.857-9.714 12-12 1.714-6.286-5.714-10.286-.571 1.143-5.143 5.143t-5.143 2.286q-1.714-2.857.286-10.571t6-7.143q-4 0-5.429-9.143T169.142 530t-.571-13.429l1.143-.571q-1.714-6.857 3.143-19.714t12.286-11.143q-7.429-1.714 11.429-24.571 3.429-4.571 4.571-5.143 1.714-1.143 6.857-4.286t8.571-5.714 5.714-6q2.286-2.857 5.714-12.857t8-13.429q-1.143-3.429 5.429-11.429t6-13.143q-.571 0-1.429-.571t-1.429-.571q1.714-4 8.857-8t8.857-7.429q.571-1.714 1.143-5.714t1.714-6.286 4.571-1.143q1.143 11.429-13.714 35.429-8.571 14.286-9.714 16.571-1.714 2.857-3.143 8.857T240.57 428q1.143 0 3.429-.857t4.857-2 4.286-2.286 1.143-1.714q-1.714-4 1.143-10t6.857-10.571 9.714-10.857 6.857-7.429q3.429-3.429 8-11.143t0-7.714q5.143 0 11.429-5.714t9.714-11.429q2.857-4.571 4.571-14.857t2.857-13.714q1.143-4 4.857-7.714t7.143-5.429l9.143-4.571 7.429-4q2.857-1.143 10.571-6t12.286-6.571q5.714-2.286 9.143-2.286t8.286 1.429 7.714 2q8.571 1.143 16.571-8.571t12-12q20.571-10.857 31.429-6.286-1.143-.571.286-4.286t4.571-8.857 5.143-8.286 3.143-4.857q2.857-3.429 10.286-8.571t10.286-8.571q3.429 2.286 4 5.143-1.714-4.571 4-11.429T504 202.288q8 1.714 8 18.286-17.714-8.571-28 10.286 0 .571-1.429 3.143t-2.286 4.857-1.429 4.857 0 4.286 2.857 1.714q5.143 0 5.714 2t-1.143 7.143-2.286 7.429q-.571 4.571-6.286 11.429t-6.857 8.571q-2.857-5.143-9.143-4.571t-9.143 5.143q0-.571-.857-3.143t-.857-3.714q-7.429 0-8.571.571.571 1.714 1.429 10t2 12.857q.571 2.286 3.143 6.857t4.286 8.286 2.286 7.143-2.571 5.429-10 1.429Q432 332.005 428 321.147q-.571-1.714-1.714-6t-2.857-6.571-5.143-4q-4-1.714-13.714-1.143t-13.714 2.857q-7.429 4.571-12.857 16.571t-5.429 21.143q0 5.714 1.429 15.143t1.714 14.286-3.143 14q1.714 1.143 5.143 5.429t5.714 6q1.143.571 2.571.857t2.571 0 2.286.857 1.714 3.429q-.571.571-2.286 1.714-1.714 1.714-2.286 1.714 4-1.714 16.286.857t15.714-.857q8.571-6.286 12.571 1.143 0 .571-1.429 5.429t-.286 7.714q2.857-15.429 16.571-5.143 1.714-1.714 8.857-2.857t10-2.857q1.714-1.143 4-3.143t3.143-2.571 2.857.286 4.857 3.714q5.714-8 6.857-13.714 6.286-22.857 10.857-25.143 4-1.714 6.286-1.143t2.571 5.429 0 8-.857 7.143l-.571 4.571v10.286l-.571 4.571q-8.571 1.714-10.571 6.857t.857 10.571 8.571 10.571q.571.571 4.571 2t8.857 3.714 7.143 4.571q12 10.857 8.571 20 4 0 6.286 5.143-.571 0-2.857 1.714t-4.286 2.857-2.571 1.143q5.143 2.857 1.143 9.143 2.857 1.714 4.286 6.286t4.286 5.714q5.143-6.857 12-1.143 4 4.571.571 9.143 2.857 4 11.714 6t10.571 5.429q4-1.143 4.571 1.143t.571 6.857 1.714 6.857q2.286 2.857 8.571 5.143t7.429 2.857l9.714 6.286q1.714 2.286 0 2.286 10.286-1.143 17.714 6.286 5.714 6.286-3.429 11.429 1.714 3.429-1.714 5.429t-8.571 3.143q1.714.571 6.571.286t6 .857q8.571 5.714-4 9.143-9.714 2.857-24.571-6.857zM502.286 78.857q117.714 20.571 200.571 108-1.714 1.714-7.143 2.571t-7.143 2q-10.286 4-13.714 4.571.571 4-1.429 7.429t-4.571 5.143-7.143 4.571-6.286 4q-1.143 1.143-4 3.429t-4 3.143-4.286 2.571-4.857 1.143-5.714-.571l-1.714-.571q-1.714-.571-3.143-1.429t-3.143-1.714-2.286-1.714 0-1.429q-12 9.714-20.571 12.571-2.857.571-6.286 3.143t-6 4-5.714.857-6.571-4q-2.857-2.857-3.429-8.571t-1.143-7.429q-4 2.857 0 10t1.143 10.571q-1.714 3.429-6 2.571t-6.857-2.571-6.571-4.857-5.143-3.714-4.857-3.143-4.857-4.286q-1.714-2.286-3.429-6.857t-2.857-6.286q-1.143 2.286-6.571 3.714t-5.429 3.143q1.143-5.714 2.286-20t2.857-21.714q4-17.714-6.857-27.429-15.429-14.286-16.571-22.857-2.286-12.571 6.857-14.857 0-4-4.571-11.714t-4-12.286q0-3.429 1.143-9.143z"/><glyph unicode="" glyph-name="filter" data-tags="filter" horiz-adv-x="805" d="M801.714 782.286q9.714-23.429-8-40L512 460.572v-424q0-24-22.286-33.714Q482.285.001 475.428.001q-15.429 0-25.714 10.857L303.428 157.144q-10.857 10.857-10.857 25.714v277.714L10.857 742.286q-17.714 16.571-8 40 9.714 22.286 33.714 22.286H768q24 0 33.714-22.286z"/><glyph unicode="" glyph-name="cloud" data-tags="cloud" horiz-adv-x="1097" d="M1097.143 292.571q0-90.857-64.286-155.143T877.714 73.142H256q-105.714 0-180.857 75.143T0 329.142q0 75.429 40.571 138t106.857 93.429q-1.143 16-1.143 24.571 0 121.143 85.714 206.857t206.857 85.714q90.286 0 163.714-50.286t107.143-131.429q40 35.429 94.857 35.429 60.571 0 103.429-42.857t42.857-103.429q0-42.857-23.429-78.857 73.714-17.143 121.714-76.857t48-136.857z"/><glyph unicode="" glyph-name="shock" data-tags="shock" horiz-adv-x="1040" d="M0 432q0-12.5 9-21.25T30.5 402h159q11.5 0 20 7t10.5 18l48 281L354.5 5q2-11.5 10.25-19T384-21.5q12 0 20.5 7.5T415 5l66.5 516L537 371.5q3-9 10.75-14.5t17.25-5.5h2.5q9.5.5 17.25 7T595 375l81.5 366 38-703q.5-11.5 8-19.75t19-9.25 20.5 5.5T773.5 32l88 370h148q12.5 0 21.5 8.75t9 21.25-9 21.5-21.5 9h-172q-10.5 0-18.75-6.5T808 439.5l-44.5-189-38.5 713q-.5 11.5-8.5 19.75t-19 8.75q-11.5 1-20.75-5.75T665 968L558.5 489.5l-62 168.5q-3.5 9.5-12.75 15t-19.25 4.5q-10.5-1-17.75-8.5t-9.25-18L385 250.5 303.5 920q-2 11.5-10 18.75t-19 7.75q-11.5.5-20.25-6.5t-10.75-18.5l-79-459h-134q-12.5 0-21.5-9T0 432z"/><glyph unicode="" glyph-name="fire" data-tags="fire" horiz-adv-x="814" d="M.5 83.5q0 24 15.5 40.75T53.5 141v1l702-2q5 1 5.5 1 22-.5 37.5-17.5t15-41q0-24-15.5-40.5t-37.5-16.5V25L65 26.5q-8-1-12-1-22 .5-37.5 17.25T.5 83.5zm44 291.5q-1 34 8.5 81 4.5 24 23.5 73 2 4 7 15 1-1.5 2-2.5t1-1.5q8.5-35.5 26-64 16.5-26 43.5-37 21-8.5 58.5-9.5 1.5 0 4.25-.25T223 429q-26.5 26.5-42 53.5-24 41.5-30.5 96.5-5 43 5 104.5 2 12 15.5 54 12 37.5 34 68.5 26 39 74.5 80.5 29.5 25 83 57 5.5 3.5 18.5 10 0-1.5-.25-2.75t-.25-2v-1.25q-19.5-46-26-92.5-5-42 13-79 13.5-29 49-61.5 7.5-7.5 31.75-30.75t37.25-36.25L499 634q21 30.5 23.5 72 3.5 44-7.5 96 0 .5.5 6 2-1.5 16-13 44.5-40 68.5-71.5 38.5-50 56.5-93 15-36.5 20-74.5 4.5-34 4-56-1-62.5-13.5-104.5-5.5-17-10-27.5 20 5.5 34.5 14 20 12.5 32 35 13 23 20.5 52.5 0 1 1.5 2.5.5-1.5 2.5-4.75t2.5-5.25q10-25 14.5-51.5 6-30 4-60.5-1.5-23-8.5-43-6.5-19-12-31-15-30.5-33-52-5-6-7.5-8.5H122.5q-1 1-3.5 3t-4 3.5q-21.5 20.5-44 60.5-6.5 12-15.5 37-9.5 25-11 55.5z"/><glyph unicode="" glyph-name="dashboard" data-tags="dashboard, tachometer" d="M219.429 292.571q0 30.286-21.429 51.714t-51.714 21.429-51.714-21.429-21.429-51.714 21.429-51.714 51.714-21.429T198 240.857t21.429 51.714zm109.714 256q0 30.286-21.429 51.714T256 621.714t-51.714-21.429-21.429-51.714 21.429-51.714T256 475.428t51.714 21.429 21.429 51.714zm244.571-274.857L631.428 492q3.429 14.857-4.286 27.714t-22 16.857-27.429-3.714-17.143-22.571L502.856 292q-34.286-2.857-61.143-24.857t-36-56.286q-11.429-44 11.429-83.429t66.857-50.857T567.428 88t50.857 66.857q9.143 34.286-3.429 66.857t-41.143 52zm377.143 18.857q0 30.286-21.429 51.714t-51.714 21.429T826 344.285t-21.429-51.714T826 240.857t51.714-21.429 51.714 21.429 21.429 51.714zM585.143 658.286q0 30.286-21.429 51.714T512 731.429 460.286 710t-21.429-51.714 21.429-51.714T512 585.143t51.714 21.429 21.429 51.714zm256-109.715q0 30.286-21.429 51.714T768 621.714t-51.714-21.429-21.429-51.714 21.429-51.714T768 475.428t51.714 21.429 21.429 51.714zm182.857-256q0-149.143-80.571-276Q932.572 0 912.572 0H111.429q-20 0-30.857 16.571Q.001 142.857.001 292.571q0 104 40.571 198.857t109.143 163.429T313.144 764t198.857 40.571T710.858 764t163.429-109.143T983.43 491.428t40.571-198.857z"/><glyph unicode="" glyph-name="spinner" data-tags="spinner" d="M300.571 154.286q0-30.286-21.429-51.714t-51.714-21.429q-29.714 0-51.429 21.714t-21.714 51.429q0 30.286 21.429 51.714t51.714 21.429T279.142 206t21.429-51.714zM585.143 36.571q0-30.286-21.429-51.714T512-36.572t-51.714 21.429-21.429 51.714 21.429 51.714T512 109.714t51.714-21.429 21.429-51.714zM182.857 438.857q0-30.286-21.429-51.714t-51.714-21.429T58 387.143t-21.429 51.714T58 490.571 109.714 512t51.714-21.429 21.429-51.714zm686.857-284.571q0-29.714-21.714-51.429t-51.429-21.714q-30.286 0-51.714 21.429t-21.429 51.714T744.857 206t51.714 21.429T848.285 206t21.429-51.714zM318.857 723.428q0-37.714-26.857-64.571T227.429 632t-64.571 26.857-26.857 64.571 26.857 64.571 64.571 26.857T292 787.999t26.857-64.571zm668.572-284.571q0-30.286-21.429-51.714t-51.714-21.429-51.714 21.429-21.429 51.714 21.429 51.714T914.286 512 966 490.571t21.429-51.714zM621.714 841.143q0-45.714-32-77.714t-77.714-32-77.714 32-32 77.714 32 77.714 77.714 32 77.714-32 32-77.714zm302.857-117.715q0-53.143-37.714-90.571t-90.286-37.429q-53.143 0-90.571 37.429t-37.429 90.571q0 52.571 37.429 90.286t90.571 37.714q52.571 0 90.286-37.714t37.714-90.286z"/><glyph unicode="" glyph-name="microphone" data-tags="microphone" horiz-adv-x="658" d="M658.286 548.571v-73.143q0-126.286-84.286-219.714T365.714 148.571V73.142H512q14.857 0 25.714-10.857t10.857-25.714-10.857-25.714T512 0H146.286q-14.857 0-25.714 10.857t-10.857 25.714 10.857 25.714 25.714 10.857h146.286v75.429q-124 13.714-208.286 107.143T0 475.428v73.143q0 14.857 10.857 25.714t25.714 10.857 25.714-10.857 10.857-25.714v-73.143q0-105.714 75.143-180.857t180.857-75.143 180.857 75.143 75.143 180.857v73.143q0 14.857 10.857 25.714t25.714 10.857 25.714-10.857 10.857-25.714zM512 768V475.429q0-75.429-53.714-129.143t-129.143-53.714T200 346.286t-53.714 129.143V768q0 75.429 53.714 129.143t129.143 53.714 129.143-53.714T512 768z"/><glyph unicode="" glyph-name="wifi" data-tags="wifi" horiz-adv-x="1170" d="M585.143 80.571q-11.429 0-53.143 42T490.286 176q0 18.286 35.714 30.857t59.143 12.571 59.143-12.571T680 176q0-11.429-41.714-53.429t-53.143-42zm154.286 154.857q-1.143 0-22.857 14.286t-58 28.571-73.429 14.286-73.429-14.286T454 249.714t-23.143-14.286q-10.286 0-53.429 42.857t-43.143 53.143q0 7.429 5.714 13.143 44.571 44 112 69.143t133.143 25.143 133.143-25.143 112-69.143q5.714-5.714 5.714-13.143 0-10.286-43.143-53.143t-53.429-42.857zm156 155.429q-6.286 0-13.143 4.571-77.714 60-144 88.286T585.143 512q-48.571 0-97.429-12.571t-85.143-30.286-64.857-35.429-45.143-30.286-17.714-12.571q-9.714 0-52.571 42.857t-42.857 53.143q0 6.857 5.714 12.571Q260.572 574.857 368 616.571t217.143 41.714 217.143-41.714 182.857-117.143q5.714-5.714 5.714-12.571 0-10.286-42.857-53.143t-52.571-42.857zm154.857 154.857q-6.286 0-12.571 5.143Q935.429 640.571 825.429 686t-240.286 45.429T344.857 686 132.571 550.857q-6.286-5.143-12.571-5.143-9.714 0-52.857 42.857T24 641.714q0 7.429 5.714 13.143Q136.571 761.143 284 819.428t301.143 58.286 301.143-58.286 254.286-164.571q5.714-5.714 5.714-13.143 0-10.286-43.143-53.143t-52.857-42.857z"/><glyph unicode="" glyph-name="battery-2" data-tags="battery-2, battery-half" horiz-adv-x="1317" d="M146.286 219.428v438.857h512V219.428h-512zm1097.143 402.286q30.286 0 51.714-21.429t21.429-51.714V329.142q0-30.286-21.429-51.714t-51.714-21.429V164.57q0-37.714-26.857-64.571t-64.571-26.857H91.43q-37.714 0-64.571 26.857T.002 164.57v548.571q0 37.714 26.857 64.571t64.571 26.857h1060.571q37.714 0 64.571-26.857t26.857-64.571v-91.429zm0-292.571v219.429h-73.143v164.571q0 8-5.143 13.143T1152 731.429H91.429q-8 0-13.143-5.143t-5.143-13.143V164.572q0-8 5.143-13.143t13.143-5.143H1152q8 0 13.143 5.143t5.143 13.143v164.571h73.143z"/></font>
</defs>
</svg>
